<svg xmlns="http://www.w3.org/2000/svg" width="194.205" height="194.205" viewBox="0 0 194.205 194.205"><defs><style>.a{fill:#fc3;}</style></defs><g transform="translate(-2 -2.565)"><path class="a" d="M151.884,183.861H31.977A29.977,29.977,0,0,1,2,153.884V33.977A29.977,29.977,0,0,1,31.977,4H71.946a9.992,9.992,0,0,1,0,19.985H31.977a9.992,9.992,0,0,0-9.992,9.992V153.884a9.992,9.992,0,0,0,9.992,9.992H151.884a9.992,9.992,0,0,0,9.992-9.992V113.915a9.992,9.992,0,0,1,19.985,0v39.969A29.977,29.977,0,0,1,151.884,183.861Z" transform="translate(0 12.908)"/><path class="a" d="M69.441,5.87,19.98,55.831a4.1,4.1,0,0,0-1.3,2.3L8.688,96.3a4.8,4.8,0,0,0,1.3,4.8,4.7,4.7,0,0,0,3.5,1,3.2,3.2,0,0,0,1.3,0L52.954,92.1a4.1,4.1,0,0,0,2.3-1.3l49.462-49.662Z" transform="translate(58.461 29.724)"/><path class="a" d="M65.961,21.4,51.473,6.916a15.188,15.188,0,0,0-21.284,0L16,21.4,51.473,56.877,65.961,42.688A15.188,15.188,0,0,0,65.961,21.4Z" transform="translate(125.892 0)"/></g></svg>